<svg width="18.500000" height="16.000000" viewBox="0 0 18.5 16" fill="none" xmlns="http://www.w3.org/2000/svg" xmlns:xlink="http://www.w3.org/1999/xlink">
	<desc>
			Created with Pixso.
	</desc>
	<defs/>
	<linearGradient x1="-3.700001" y1="51.201515" x2="64.750000" y2="51.201515" id="paint_linear_2_42890_0" gradientUnits="userSpaceOnUse">
		<stop stop-color="#E59CFF"/>
		<stop offset="0.500000" stop-color="#BA9CFF"/>
		<stop offset="1.000000" stop-color="#9CB2FF"/>
	</linearGradient>
	<path id="Vector" d="M6 2.5C6 2.32 5.85 2.18 5.68 2.18C4.65 2.18 3.81 1.34 3.81 0.31C3.81 0.13 3.67 0 3.5 0C3.32 0 3.18 0.13 3.18 0.31C3.18 1.34 2.34 2.18 1.31 2.18C1.14 2.18 1 2.32 1 2.5C1 2.67 1.14 2.81 1.31 2.81C2.34 2.81 3.18 3.65 3.18 4.68C3.18 4.86 3.32 5 3.5 5C3.67 5 3.81 4.86 3.81 4.68C3.81 3.65 4.65 2.81 5.68 2.81C5.85 2.81 6 2.67 6 2.5Z" fill="url(#paint_linear_2_42890_0)" fill-opacity="1.000000" fill-rule="nonzero"/>
	<path id="Vector" d="M6 2.5C6 2.32 5.85 2.18 5.68 2.18C4.65 2.18 3.81 1.34 3.81 0.31C3.81 0.13 3.67 0 3.5 0C3.32 0 3.18 0.13 3.18 0.31C3.18 1.34 2.34 2.18 1.31 2.18C1.14 2.18 1 2.32 1 2.5C1 2.67 1.14 2.81 1.31 2.81C2.34 2.81 3.18 3.65 3.18 4.68C3.18 4.86 3.32 5 3.5 5C3.67 5 3.81 4.86 3.81 4.68C3.81 3.65 4.65 2.81 5.68 2.81C5.85 2.81 6 2.67 6 2.5Z" fill="#FFFFFF" fill-opacity="0.500000" fill-rule="nonzero"/>
	<linearGradient x1="-12.613636" y1="21.093462" x2="18.499998" y2="21.093462" id="paint_linear_2_42892_1" gradientUnits="userSpaceOnUse">
		<stop stop-color="#E59CFF"/>
		<stop offset="0.500000" stop-color="#BA9CFF"/>
		<stop offset="1.000000" stop-color="#9CB2FF"/>
	</linearGradient>
	<path id="Vector" d="M13.5 2C13.5 1.72 13.27 1.5 13 1.5C12.72 1.5 12.5 1.72 12.5 2C12.5 4.48 10.48 6.5 8 6.5C7.72 6.5 7.5 6.72 7.5 7C7.5 7.27 7.72 7.5 8 7.5C10.48 7.5 12.5 9.51 12.5 12C12.5 12.27 12.72 12.5 13 12.5C13.27 12.5 13.5 12.27 13.5 12C13.5 9.51 15.51 7.5 18 7.5C18.27 7.5 18.5 7.27 18.5 7C18.5 6.72 18.27 6.5 18 6.5C15.51 6.5 13.5 4.48 13.5 2Z" fill="url(#paint_linear_2_42892_1)" fill-opacity="1.000000" fill-rule="nonzero"/>
	<path id="Vector" d="M13.5 2C13.5 1.72 13.27 1.5 13 1.5C12.72 1.5 12.5 1.72 12.5 2C12.5 4.48 10.48 6.5 8 6.5C7.72 6.5 7.5 6.72 7.5 7C7.5 7.27 7.72 7.5 8 7.5C10.48 7.5 12.5 9.51 12.5 12C12.5 12.27 12.72 12.5 13 12.5C13.27 12.5 13.5 12.27 13.5 12C13.5 9.51 15.51 7.5 18 7.5C18.27 7.5 18.5 7.27 18.5 7C18.5 6.72 18.27 6.5 18 6.5C15.51 6.5 13.5 4.48 13.5 2Z" fill="#FFFFFF" fill-opacity="0.500000" fill-rule="nonzero"/>
	<linearGradient x1="0.000000" y1="16.001083" x2="42.781250" y2="16.001083" id="paint_linear_2_42894_2" gradientUnits="userSpaceOnUse">
		<stop stop-color="#E59CFF"/>
		<stop offset="0.500000" stop-color="#BA9CFF"/>
		<stop offset="1.000000" stop-color="#9CB2FF"/>
	</linearGradient>
	<path id="Vector" d="M4.5 8.5C4.5 8.22 4.27 8 4 8C3.72 8 3.5 8.22 3.5 8.5C3.5 10.15 2.15 11.5 0.5 11.5C0.22 11.5 0 11.72 0 12C0 12.27 0.22 12.5 0.5 12.5C2.15 12.5 3.5 13.84 3.5 15.5C3.5 15.77 3.72 16 4 16C4.27 16 4.5 15.77 4.5 15.5C4.5 13.84 5.84 12.5 7.5 12.5C7.77 12.5 8 12.27 8 12C8 11.72 7.77 11.5 7.5 11.5C5.84 11.5 4.5 10.15 4.5 8.5Z" fill="url(#paint_linear_2_42894_2)" fill-opacity="1.000000" fill-rule="nonzero"/>
	<path id="Vector" d="M4.5 8.5C4.5 8.22 4.27 8 4 8C3.72 8 3.5 8.22 3.5 8.5C3.5 10.15 2.15 11.5 0.5 11.5C0.22 11.5 0 11.72 0 12C0 12.27 0.22 12.5 0.5 12.5C2.15 12.5 3.5 13.84 3.5 15.5C3.5 15.77 3.72 16 4 16C4.27 16 4.5 15.77 4.5 15.5C4.5 13.84 5.84 12.5 7.5 12.5C7.77 12.5 8 12.27 8 12C8 11.72 7.77 11.5 7.5 11.5C5.84 11.5 4.5 10.15 4.5 8.5Z" fill="#FFFFFF" fill-opacity="0.500000" fill-rule="nonzero"/>
</svg>
