<svg width="40.000000" height="40.000000" viewBox="0 0 40 40" fill="none" xmlns="http://www.w3.org/2000/svg" xmlns:xlink="http://www.w3.org/1999/xlink">
	<desc>
			Created with Pixso.
	</desc>
	<defs>
		<clipPath id="clip2_5085">
			<rect id="SVG" width="40.000000" height="40.000000" fill="white" fill-opacity="0"/>
		</clipPath>
		<linearGradient x1="20.000000" y1="5.000000" x2="20.000000" y2="35.000000" id="paint_linear_2_5088_0" gradientUnits="userSpaceOnUse">
			<stop stop-color="#FFFFFF" stop-opacity="0.000000"/>
			<stop offset="1.000000" stop-color="#FFFFFF"/>
		</linearGradient>
	</defs>
	<g clip-path="url(#clip2_5085)">
		<path id="Vector" d="M25 19L25 16C25 14.67 24.47 13.4 23.53 12.46C22.59 11.52 21.32 11 20 11C18.67 11 17.4 11.52 16.46 12.46C15.52 13.4 15 14.67 15 16L15 19" stroke="#FFFFFF" stroke-opacity="1.000000" stroke-width="1.000000"/>
		<path id="Vector" d="M13 26C13 26.79 13.31 27.55 13.87 28.12C14.44 28.68 15.2 29 16 29L24 29C24.79 29 25.55 28.68 26.12 28.12C26.68 27.55 27 26.79 27 26L27 20L13 20L13 26Z" fill="#FFFFFF" fill-opacity="1.000000" fill-rule="nonzero"/>
		<path id="Vector" d="M13.87 28.12C14.44 28.68 15.2 29 16 29L24 29C24.79 29 25.55 28.68 26.12 28.12C26.68 27.55 27 26.79 27 26L27 20L13 20L13 26C13 26.79 13.31 27.55 13.87 28.12Z" stroke="#FFFFFF" stroke-opacity="1.000000" stroke-width="1.000000"/>
		<path id="Vector" d="M11 35L9 35C7.93 35 6.92 34.57 6.17 33.82C5.42 33.07 5 32.06 5 31L5 9C5 7.93 5.42 6.92 6.17 6.17C6.92 5.42 7.93 5 9 5L31 5C32.06 5 33.07 5.42 33.82 6.17C34.57 6.92 35 7.93 35 9L35 31C35 32.06 34.57 33.07 33.82 33.82C33.07 34.57 32.06 35 31 35L29 35L11 35Z" fill="url(#paint_linear_2_5088_0)" fill-opacity="0.240000" fill-rule="nonzero"/>
		<path id="Vector" d="M11 35L9 35C7.93 35 6.92 34.57 6.17 33.82C5.42 33.07 5 32.06 5 31L5 9C5 7.93 5.42 6.92 6.17 6.17C6.92 5.42 7.93 5 9 5L31 5C32.06 5 33.07 5.42 33.82 6.17C34.57 6.92 35 7.93 35 9L35 31C35 32.06 34.57 33.07 33.82 33.82C33.07 34.57 32.06 35 31 35L29 35" stroke="#FFFFFF" stroke-opacity="1.000000" stroke-width="1.000000" stroke-linejoin="round" stroke-linecap="round"/>
		<g opacity="0.400000">
			<path id="Vector" d="M15 35L25 35" stroke="#FFFFFF" stroke-opacity="1.000000" stroke-width="1.000000" stroke-linejoin="round" stroke-linecap="round"/>
		</g>
	</g>
</svg>
