<svg width="40.000000" height="40.000000" viewBox="0 0 40 40" fill="none" xmlns="http://www.w3.org/2000/svg" xmlns:xlink="http://www.w3.org/1999/xlink">
	<desc>
			Created with Pixso.
	</desc>
	<defs>
		<clipPath id="clip2_4425">
			<rect id="SVG" width="40.000000" height="40.000000" fill="white" fill-opacity="0"/>
		</clipPath>
		<linearGradient x1="19.999998" y1="5.000000" x2="19.999998" y2="30.000000" id="paint_linear_2_4426_0" gradientUnits="userSpaceOnUse">
			<stop stop-color="#FFFFFF" stop-opacity="0.000000"/>
			<stop offset="1.000000" stop-color="#FFFFFF"/>
		</linearGradient>
		<linearGradient x1="20.000000" y1="21.000000" x2="20.000000" y2="35.000000" id="paint_linear_2_4432_0" gradientUnits="userSpaceOnUse">
			<stop stop-color="#FFFFFF" stop-opacity="0.000000"/>
			<stop offset="1.000000" stop-color="#FFFFFF"/>
		</linearGradient>
	</defs>
	<g clip-path="url(#clip2_4425)">
		<path id="Vector" d="M8 5L32 5C32.79 5 33.55 5.31 34.12 5.87C34.68 6.44 35 7.2 35 8L35 27C35 27.79 34.68 28.55 34.12 29.12C33.55 29.68 32.79 30 32 30L26.71 30C26.89 29.36 27 28.69 27 28C27 24.13 23.86 21 20 21C16.13 21 13 24.13 13 28C13 28.69 13.1 29.36 13.29 30L8 30C7.2 30 6.44 29.68 5.87 29.12C5.31 28.55 5 27.79 5 27L5 8C5 7.2 5.31 6.44 5.87 5.87C6.44 5.31 7.2 5 8 5Z" fill="url(#paint_linear_2_4426_0)" fill-opacity="0.240000" fill-rule="nonzero"/>
		<path id="Vector" d="M8 30C7.2 30 6.44 29.68 5.87 29.12C5.31 28.55 5 27.79 5 27L5 8C5 7.2 5.31 6.44 5.87 5.87C6.44 5.31 7.2 5 8 5L32 5C32.79 5 33.55 5.31 34.12 5.87C34.68 6.44 35 7.2 35 8L35 27C35 27.79 34.68 28.55 34.12 29.12C33.55 29.68 32.79 30 32 30" stroke="#FFFFFF" stroke-opacity="1.000000" stroke-width="1.000000" stroke-linejoin="round" stroke-linecap="round"/>
		<g opacity="0.400000">
			<path id="Vector" d="M25.52 16.57C25.99 16.85 26.53 17 27.13 17C27.51 17 27.86 16.94 28.18 16.83C28.51 16.72 28.8 16.56 29.05 16.36C29.3 16.15 29.51 15.91 29.67 15.64C29.83 15.36 29.94 15.05 30 14.71L28.94 14.71C28.89 14.93 28.81 15.12 28.7 15.29C28.59 15.45 28.46 15.59 28.3 15.71C28.14 15.83 27.96 15.91 27.76 15.97C27.56 16.03 27.36 16.06 27.14 16.06C26.74 16.06 26.38 15.96 26.07 15.76C25.75 15.57 25.5 15.28 25.32 14.9C25.13 14.52 25.04 14.05 25.04 13.5C25.04 12.95 25.13 12.48 25.32 12.1C25.5 11.72 25.75 11.43 26.07 11.23C26.38 11.03 26.74 10.93 27.14 10.93C27.36 10.93 27.57 10.96 27.77 11.02C27.96 11.08 28.14 11.17 28.3 11.29C28.46 11.41 28.6 11.55 28.71 11.72C28.82 11.89 28.9 12.08 28.94 12.31L30 12.31C29.94 11.94 29.82 11.62 29.65 11.33C29.49 11.04 29.28 10.8 29.02 10.6C28.77 10.41 28.48 10.25 28.16 10.15C27.84 10.05 27.49 10 27.13 10C26.53 10 26 10.14 25.53 10.42C25.05 10.7 24.68 11.1 24.41 11.62C24.14 12.15 24 12.77 24 13.5C24 14.22 24.14 14.85 24.41 15.37C24.68 15.89 25.05 16.29 25.52 16.57Z" fill="#FFFFFF" fill-opacity="1.000000" fill-rule="nonzero"/>
			<path id="Vector" d="M11.75 15.1L11.11 16.9L10 16.9L12.5 10.09L13.71 10.09L16.2 16.9L15.09 16.9L14.46 15.1L11.75 15.1ZM13.13 11.33L14.15 14.24L12.05 14.24L13.07 11.33L13.13 11.33Z" fill="#FFFFFF" fill-opacity="1.000000" fill-rule="evenodd"/>
			<path id="Vector" d="M21.58 16.66C21.24 16.82 20.79 16.9 20.25 16.9L17.59 16.9L17.59 10.09L20.14 10.09C20.63 10.09 21.04 10.17 21.36 10.32C21.69 10.48 21.93 10.7 22.09 10.97C22.25 11.24 22.33 11.54 22.33 11.88C22.33 12.16 22.28 12.4 22.17 12.59C22.06 12.79 21.92 12.94 21.74 13.06C21.56 13.18 21.37 13.26 21.16 13.32L21.16 13.38C21.39 13.39 21.61 13.47 21.84 13.6C22.06 13.73 22.24 13.93 22.38 14.17C22.53 14.42 22.6 14.72 22.6 15.07C22.6 15.42 22.52 15.73 22.35 16.01C22.18 16.28 21.93 16.5 21.58 16.66ZM20.92 14C20.72 13.89 20.47 13.84 20.2 13.84L18.64 13.84L18.64 16.03L20.15 16.03C20.66 16.03 21.02 15.93 21.23 15.74C21.45 15.54 21.56 15.31 21.56 15.02C21.56 14.8 21.5 14.61 21.39 14.43C21.28 14.25 21.13 14.11 20.92 14ZM21 11.25C20.8 11.06 20.49 10.97 20.08 10.97L18.64 10.97L18.64 13.04L20.05 13.04C20.28 13.04 20.49 12.99 20.68 12.9C20.87 12.82 21.02 12.69 21.13 12.53C21.24 12.36 21.3 12.17 21.3 11.96C21.3 11.68 21.2 11.44 21 11.25Z" fill="#FFFFFF" fill-opacity="1.000000" fill-rule="evenodd"/>
		</g>
		<path id="Vector" d="M27 28C27 29.71 26.38 31.28 25.36 32.5C24.07 34.02 22.15 35 20 35C16.13 35 13 31.86 13 28C13 24.13 16.13 21 20 21C23.86 21 27 24.13 27 28Z" fill="url(#paint_linear_2_4432_0)" fill-opacity="0.240000" fill-rule="nonzero"/>
		<path id="Vector" d="M27 28C27 24.13 23.86 21 20 21C16.13 21 13 24.13 13 28C13 31.86 16.13 35 20 35C22.15 35 24.07 34.02 25.36 32.5C26.38 31.28 27 29.71 27 28ZM25.36 32.5L28.86 36" stroke="#FFFFFF" stroke-opacity="1.000000" stroke-width="1.000000" stroke-linejoin="round" stroke-linecap="round"/>
		<path id="Vector" d="M17 28L19 30L23 26" stroke="#FFFFFF" stroke-opacity="1.000000" stroke-width="1.000000" stroke-linejoin="round" stroke-linecap="round"/>
	</g>
</svg>
