<svg width="40.000000" height="40.000000" viewBox="0 0 40 40" fill="none" xmlns="http://www.w3.org/2000/svg" xmlns:xlink="http://www.w3.org/1999/xlink">
	<desc>
			Created with Pixso.
	</desc>
	<defs>
		<clipPath id="clip2_4402">
			<rect id="SVG" width="40.000000" height="40.000000" fill="white" fill-opacity="0"/>
		</clipPath>
		<linearGradient x1="19.999994" y1="5.000000" x2="19.999994" y2="35.000000" id="paint_linear_2_4403_0" gradientUnits="userSpaceOnUse">
			<stop stop-color="#FFFFFF" stop-opacity="0.000000"/>
			<stop offset="1.000000" stop-color="#FFFFFF"/>
		</linearGradient>
	</defs>
	<g clip-path="url(#clip2_4402)">
		<path id="Vector" d="M31 8L31 25L31 32C31 32.79 30.68 33.55 30.12 34.12C29.55 34.68 28.79 35 28 35L12 35C11.2 35 10.44 34.68 9.87 34.12C9.31 33.55 9 32.79 9 32L9 8C9 7.2 9.31 6.44 9.87 5.87C10.44 5.31 11.2 5 12 5L28 5C28.79 5 29.55 5.31 30.12 5.87C30.68 6.44 31 7.2 31 8Z" fill="url(#paint_linear_2_4403_0)" fill-opacity="0.240000" fill-rule="nonzero"/>
		<path id="Vector" d="M24 5L16 5M28 5C28.79 5 29.55 5.31 30.12 5.87C30.68 6.44 31 7.2 31 8L31 32C31 32.79 30.68 33.55 30.12 34.12C29.55 34.68 28.79 35 28 35L12 35C11.2 35 10.44 34.68 9.87 34.12C9.31 33.55 9 32.79 9 32L9 8C9 7.2 9.31 6.44 9.87 5.87C10.44 5.31 11.2 5 12 5" stroke="#FFFFFF" stroke-opacity="1.000000" stroke-width="1.000000" stroke-linejoin="round" stroke-linecap="round"/>
		<g opacity="0.320000">
			<path id="Vector" d="M13 12L15 10L17 12L19 11L20 12L27 12" stroke="#FFFFFF" stroke-opacity="1.000000" stroke-width="1.000000" stroke-linejoin="round" stroke-linecap="round"/>
		</g>
		<g opacity="0.480000">
			<path id="Vector" d="M13 16L27 16" stroke="#FFFFFF" stroke-opacity="1.000000" stroke-width="1.000000" stroke-linejoin="round" stroke-linecap="round"/>
		</g>
		<path id="Vector" d="M13 20L27 20" stroke="#FFFFFF" stroke-opacity="1.000000" stroke-width="1.000000" stroke-linejoin="round" stroke-linecap="round"/>
		<path id="Vector" d="M14 28.25C16.25 28.25 16.25 26 16.25 26C16.25 26 16.25 28.25 18.5 28.25C16.25 28.25 16.25 30.5 16.25 30.5C16.25 30.5 16.25 28.25 14 28.25Z" fill="#FFFFFF" fill-opacity="1.000000" fill-rule="nonzero"/>
		<path id="Vector" d="M26.5 26L26.5 26M14 28.25C16.25 28.25 16.25 30.5 16.25 30.5C16.25 30.5 16.25 28.25 18.5 28.25C16.25 28.25 16.25 26 16.25 26C16.25 26 16.25 28.25 14 28.25Z" stroke="#FFFFFF" stroke-opacity="1.000000" stroke-width="1.500000" stroke-linejoin="round" stroke-linecap="round"/>
	</g>
</svg>
