<svg width="40.000000" height="40.000000" viewBox="0 0 40 40" fill="none" xmlns="http://www.w3.org/2000/svg" xmlns:xlink="http://www.w3.org/1999/xlink">
	<desc>
			Created with Pixso.
	</desc>
	<defs>
		<clipPath id="clip2_5074">
			<rect id="SVG" width="40.000000" height="40.000000" fill="white" fill-opacity="0"/>
		</clipPath>
		<linearGradient x1="15.999994" y1="5.000000" x2="15.999994" y2="35.000000" id="paint_linear_2_5075_0" gradientUnits="userSpaceOnUse">
			<stop stop-color="#FFFFFF" stop-opacity="0.000000"/>
			<stop offset="1.000000" stop-color="#FFFFFF"/>
		</linearGradient>
	</defs>
	<g clip-path="url(#clip2_5074)">
		<path id="Vector" d="M27 14L27 8C27 7.2 26.68 6.44 26.12 5.87C25.55 5.31 24.79 5 24 5L8 5C7.2 5 6.44 5.31 5.87 5.87C5.31 6.44 5 7.2 5 8L5 32C5 32.79 5.31 33.55 5.87 34.12C6.44 34.68 7.2 35 8 35L24 35C24.79 35 25.55 34.68 26.12 34.12C26.68 33.55 27 32.79 27 32L27 25L27 14Z" fill="url(#paint_linear_2_5075_0)" fill-opacity="0.240000" fill-rule="nonzero"/>
		<path id="Vector" d="M27 14L27 8C27 7.2 26.68 6.44 26.12 5.87C25.55 5.31 24.79 5 24 5L8 5C7.2 5 6.44 5.31 5.87 5.87C5.31 6.44 5 7.2 5 8L5 32C5 32.79 5.31 33.55 5.87 34.12C6.44 34.68 7.2 35 8 35L24 35C24.79 35 25.55 34.68 26.12 34.12C26.68 33.55 27 32.79 27 32L27 25" stroke="#FFFFFF" stroke-opacity="1.000000" stroke-width="1.000000" stroke-linejoin="round" stroke-linecap="round"/>
		<path id="Vector" d="M21 21L21 18L35 18L35 21L21 21Z" fill="#FFFFFF" fill-opacity="1.000000" fill-rule="nonzero"/>
		<path id="Vector" d="M21 18L35 18L35 21L21 21L21 18Z" stroke="#FFFFFF" stroke-opacity="1.000000" stroke-width="1.000000" stroke-linejoin="round"/>
		<g opacity="0.320000">
			<path id="Vector" d="M9 14L9 11L23 11L23 14L9 14Z" fill="#FFFFFF" fill-opacity="1.000000" fill-rule="nonzero"/>
			<path id="Vector" d="M9 11L23 11L23 14L9 14L9 11Z" stroke="#FFFFFF" stroke-opacity="1.000000" stroke-width="1.000000" stroke-linejoin="round"/>
		</g>
		<path id="Vector" d="M20 5L18 7L14 7L12 5" stroke="#FFFFFF" stroke-opacity="1.000000" stroke-width="1.000000" stroke-linejoin="round" stroke-linecap="round"/>
	</g>
</svg>
