<svg width="40.000000" height="40.000000" viewBox="0 0 40 40" fill="none" xmlns="http://www.w3.org/2000/svg" xmlns:xlink="http://www.w3.org/1999/xlink">
	<desc>
			Created with Pixso.
	</desc>
	<defs>
		<clipPath id="clip2_5065">
			<rect id="SVG" width="40.000000" height="40.000000" fill="white" fill-opacity="0"/>
		</clipPath>
		<linearGradient x1="20.000000" y1="7.000000" x2="20.000000" y2="33.000000" id="paint_linear_2_5066_0" gradientUnits="userSpaceOnUse">
			<stop stop-color="#FFFFFF" stop-opacity="0.000000"/>
			<stop offset="1.000000" stop-color="#FFFFFF"/>
		</linearGradient>
	</defs>
	<g clip-path="url(#clip2_5065)">
		<path id="Vector" d="M20 33C27.17 33 33 27.17 33 20C33 12.82 27.17 7 20 7C12.82 7 7 12.82 7 20C7 27.17 12.82 33 20 33Z" fill="url(#paint_linear_2_5066_0)" fill-opacity="0.240000" fill-rule="nonzero"/>
		<path id="Vector" d="M33 20C33 12.82 27.17 7 20 7C12.82 7 7 12.82 7 20C7 27.17 12.82 33 20 33C27.17 33 33 27.17 33 20Z" stroke="#FFFFFF" stroke-opacity="1.000000" stroke-width="1.000000" stroke-linejoin="round"/>
		<g opacity="0.400000">
			<path id="Vector" d="M20 18C20.53 18 21.03 18.21 21.41 18.58C21.78 18.96 22 19.46 22 20C22 20.53 21.78 21.03 21.41 21.41C21.03 21.78 20.53 22 20 22C19.46 22 18.96 21.78 18.58 21.41C18.21 21.03 18 20.53 18 20C18 19.46 18.21 18.96 18.58 18.58C18.96 18.21 19.46 18 20 18Z" fill="#030014" fill-opacity="1.000000" fill-rule="nonzero"/>
			<path id="Vector" d="M21.41 18.58C21.78 18.96 22 19.46 22 20C22 20.53 21.78 21.03 21.41 21.41C21.03 21.78 20.53 22 20 22C19.46 22 18.96 21.78 18.58 21.41C18.21 21.03 18 20.53 18 20C18 19.46 18.21 18.96 18.58 18.58C18.96 18.21 19.46 18 20 18C20.53 18 21.03 18.21 21.41 18.58Z" stroke="#FFFFFF" stroke-opacity="1.000000" stroke-width="1.000000" stroke-linejoin="round"/>
		</g>
		<path id="Vector" d="M20 5C20.53 5 21.03 5.21 21.41 5.58C21.78 5.96 22 6.46 22 7C22 7.53 21.78 8.03 21.41 8.41C21.03 8.78 20.53 9 20 9C19.46 9 18.96 8.78 18.58 8.41C18.21 8.03 18 7.53 18 7C18 6.46 18.21 5.96 18.58 5.58C18.96 5.21 19.46 5 20 5ZM20 31C20.53 31 21.03 31.21 21.41 31.58C21.78 31.96 22 32.46 22 33C22 33.53 21.78 34.03 21.41 34.41C21.03 34.78 20.53 35 20 35C19.46 35 18.96 34.78 18.58 34.41C18.21 34.03 18 33.53 18 33C18 32.46 18.21 31.96 18.58 31.58C18.96 31.21 19.46 31 20 31ZM33 18C33.53 18 34.03 18.21 34.41 18.58C34.78 18.96 35 19.46 35 20C35 20.53 34.78 21.03 34.41 21.41C34.03 21.78 33.53 22 33 22C32.46 22 31.96 21.78 31.58 21.41C31.21 21.03 31 20.53 31 20C31 19.46 31.21 18.96 31.58 18.58C31.96 18.21 32.46 18 33 18ZM7 18C7.53 18 8.03 18.21 8.41 18.58C8.78 18.96 9 19.46 9 20C9 20.53 8.78 21.03 8.41 21.41C8.03 21.78 7.53 22 7 22C6.46 22 5.96 21.78 5.58 21.41C5.21 21.03 5 20.53 5 20C5 19.46 5.21 18.96 5.58 18.58C5.96 18.21 6.46 18 7 18Z" fill="#030014" fill-opacity="1.000000" fill-rule="nonzero"/>
		<path id="Vector" d="M21.41 5.58C21.78 5.96 22 6.46 22 7C22 7.53 21.78 8.03 21.41 8.41C21.03 8.78 20.53 9 20 9C19.46 9 18.96 8.78 18.58 8.41C18.21 8.03 18 7.53 18 7C18 6.46 18.21 5.96 18.58 5.58C18.96 5.21 19.46 5 20 5C20.53 5 21.03 5.21 21.41 5.58ZM21.41 31.58C21.78 31.96 22 32.46 22 33C22 33.53 21.78 34.03 21.41 34.41C21.03 34.78 20.53 35 20 35C19.46 35 18.96 34.78 18.58 34.41C18.21 34.03 18 33.53 18 33C18 32.46 18.21 31.96 18.58 31.58C18.96 31.21 19.46 31 20 31C20.53 31 21.03 31.21 21.41 31.58ZM34.41 18.58C34.78 18.96 35 19.46 35 20C35 20.53 34.78 21.03 34.41 21.41C34.03 21.78 33.53 22 33 22C32.46 22 31.96 21.78 31.58 21.41C31.21 21.03 31 20.53 31 20C31 19.46 31.21 18.96 31.58 18.58C31.96 18.21 32.46 18 33 18C33.53 18 34.03 18.21 34.41 18.58ZM8.41 18.58C8.78 18.96 9 19.46 9 20C9 20.53 8.78 21.03 8.41 21.41C8.03 21.78 7.53 22 7 22C6.46 22 5.96 21.78 5.58 21.41C5.21 21.03 5 20.53 5 20C5 19.46 5.21 18.96 5.58 18.58C5.96 18.21 6.46 18 7 18C7.53 18 8.03 18.21 8.41 18.58Z" stroke="#FFFFFF" stroke-opacity="1.000000" stroke-width="1.000000" stroke-linejoin="round"/>
	</g>
</svg>
