<svg width="40.000000" height="40.000000" viewBox="0 0 40 40" fill="none" xmlns="http://www.w3.org/2000/svg" xmlns:xlink="http://www.w3.org/1999/xlink">
	<desc>
			Created with Pixso.
	</desc>
	<defs>
		<clipPath id="clip2_5107">
			<rect id="SVG" width="40.000000" height="40.000000" fill="white" fill-opacity="0"/>
		</clipPath>
	</defs>
	<g clip-path="url(#clip2_5107)">
		<path id="Vector" d="M18 17L18 35L23 28L32 28L18 17Z" fill="#FFFFFF" fill-opacity="1.000000" fill-rule="nonzero"/>
		<path id="Vector" d="M18 35L23 28L32 28L18 17L18 35Z" stroke="#FFFFFF" stroke-opacity="1.000000" stroke-width="1.000000" stroke-linejoin="round"/>
		<path id="Vector" d="M20 29C24.97 29 29 24.97 29 20C29 15.02 24.97 11 20 11C15.02 11 11 15.02 11 20C11 24.97 15.02 29 20 29Z" fill="#FFFFFF" fill-opacity="0.120000" fill-rule="nonzero"/>
		<g opacity="0.400000">
			<path id="Vector" d="M20 5L20 7" stroke="#FFFFFF" stroke-opacity="1.000000" stroke-width="1.000000" stroke-linejoin="round" stroke-linecap="round"/>
		</g>
		<path id="Vector" d="M27.5 7.01L26.5 8.74M32.99 12.5L31.25 13.5M35 20L33 20M8.74 26.5L7 27.5M7 20L5 20" stroke="#FFFFFF" stroke-opacity="1.000000" stroke-width="1.000000" stroke-linejoin="round" stroke-linecap="round"/>
		<g opacity="0.400000">
			<path id="Vector" d="M8.74 13.5L7 12.5M13.5 8.74L12.5 7.01" stroke="#FFFFFF" stroke-opacity="1.000000" stroke-width="1.000000" stroke-linejoin="round" stroke-linecap="round"/>
		</g>
	</g>
</svg>
