<svg width="40.000000" height="40.000000" viewBox="0 0 40 40" fill="none" xmlns="http://www.w3.org/2000/svg" xmlns:xlink="http://www.w3.org/1999/xlink">
	<desc>
			Created with Pixso.
	</desc>
	<defs>
		<clipPath id="clip2_5132">
			<rect id="SVG" width="40.000000" height="40.000000" fill="white" fill-opacity="0"/>
		</clipPath>
		<linearGradient x1="20.000000" y1="5.000000" x2="20.000000" y2="35.000000" id="paint_linear_2_5133_0" gradientUnits="userSpaceOnUse">
			<stop stop-color="#FFFFFF" stop-opacity="0.000000"/>
			<stop offset="1.000000" stop-color="#FFFFFF"/>
		</linearGradient>
	</defs>
	<g clip-path="url(#clip2_5132)">
		<path id="Vector" d="M32 5L8 5C7.2 5 6.44 5.31 5.87 5.87C5.31 6.44 5 7.2 5 8L5 32C5 32.79 5.31 33.55 5.87 34.12C6.44 34.68 7.2 35 8 35L32 35C32.79 35 33.55 34.68 34.12 34.12C34.68 33.55 35 32.79 35 32L35 8C35 7.2 34.68 6.44 34.12 5.87C33.55 5.31 32.79 5 32 5Z" fill="url(#paint_linear_2_5133_0)" fill-opacity="0.240000" fill-rule="nonzero"/>
		<path id="Vector" d="M8 5C7.2 5 6.44 5.31 5.87 5.87C5.31 6.44 5 7.2 5 8L5 32C5 32.79 5.31 33.55 5.87 34.12C6.44 34.68 7.2 35 8 35L32 35C32.79 35 33.55 34.68 34.12 34.12C34.68 33.55 35 32.79 35 32L35 8C35 7.2 34.68 6.44 34.12 5.87C33.55 5.31 32.79 5 32 5L8 5Z" stroke="#FFFFFF" stroke-opacity="1.000000" stroke-width="1.000000" stroke-linejoin="round"/>
		<path id="Vector" d="M9 9L9 9M12 9L12 9M15 9L15 9" stroke="#FFFFFF" stroke-opacity="1.000000" stroke-width="1.500000" stroke-linejoin="round" stroke-linecap="round"/>
		<path id="Vector" d="M13 27L13 22L27 22L27 27L13 27Z" fill="#FFFFFF" fill-opacity="1.000000" fill-rule="nonzero"/>
		<path id="Vector" d="M13 22L27 22L27 27L13 27L13 22Z" stroke="#FFFFFF" stroke-opacity="1.000000" stroke-width="1.000000" stroke-linejoin="round"/>
		<g opacity="0.400000">
			<path id="Vector" d="M13 19L12 19C11.46 19 10.96 19.21 10.58 19.58C10.21 19.96 10 20.46 10 21L10 22M27 19L28 19C28.53 19 29.03 19.21 29.41 19.58C29.78 19.96 30 20.46 30 21L30 22M13 30L12 30C11.46 30 10.96 29.78 10.58 29.41C10.21 29.03 10 28.53 10 28L10 27M27 30L28 30C28.53 30 29.03 29.78 29.41 29.41C29.78 29.03 30 28.53 30 28L30 27" stroke="#FFFFFF" stroke-opacity="1.000000" stroke-width="1.000000" stroke-linejoin="round" stroke-linecap="round"/>
		</g>
	</g>
</svg>
