<svg width="40.000000" height="40.000000" viewBox="0 0 40 40" fill="none" xmlns="http://www.w3.org/2000/svg" xmlns:xlink="http://www.w3.org/1999/xlink">
	<desc>
			Created with Pixso.
	</desc>
	<defs>
		<clipPath id="clip2_5054">
			<rect id="SVG" width="40.000000" height="40.000000" fill="white" fill-opacity="0"/>
		</clipPath>
		<linearGradient x1="19.999996" y1="5.000000" x2="19.999996" y2="23.000000" id="paint_linear_2_5055_0" gradientUnits="userSpaceOnUse">
			<stop stop-color="#FFFFFF" stop-opacity="0.000000"/>
			<stop offset="1.000000" stop-color="#FFFFFF"/>
		</linearGradient>
	</defs>
	<g clip-path="url(#clip2_5054)">
		<path id="Vector" d="M27 23C29.72 22.43 32 19.89 32 17C32 15.4 31.36 13.88 30.24 12.75C29.11 11.63 27.59 11 26 11C26 9.4 25.36 7.88 24.24 6.75C23.11 5.63 21.59 5 20 5C18.4 5 16.88 5.63 15.75 6.75C14.63 7.88 14 9.4 14 11C12.4 11 10.88 11.63 9.75 12.75C8.63 13.88 8 15.4 8 17C8 19.87 10.29 22.42 13 23L27 23Z" fill="url(#paint_linear_2_5055_0)" fill-opacity="0.240000" fill-rule="nonzero"/>
		<path id="Vector" d="M27 23C29.72 22.43 32 19.89 32 17C32 15.4 31.36 13.88 30.24 12.75C29.11 11.63 27.59 11 26 11C26 9.4 25.36 7.88 24.24 6.75C23.11 5.63 21.59 5 20 5C18.4 5 16.88 5.63 15.75 6.75C14.63 7.88 14 9.4 14 11C12.4 11 10.88 11.63 9.75 12.75C8.63 13.88 8 15.4 8 17C8 19.87 10.29 22.42 13 23" stroke="#FFFFFF" stroke-opacity="1.000000" stroke-width="1.000000" stroke-linejoin="round" stroke-linecap="round"/>
		<g opacity="0.320000">
			<path id="Vector" d="M13 35L13 32L27 32L27 35L13 35Z" fill="#FFFFFF" fill-opacity="1.000000" fill-rule="nonzero"/>
			<path id="Vector" d="M13 32L27 32L27 35L13 35L13 32Z" stroke="#FFFFFF" stroke-opacity="1.000000" stroke-width="1.000000" stroke-linejoin="round"/>
		</g>
		<path id="Vector" d="M20 28L20 18" stroke="#FFFFFF" stroke-opacity="1.000000" stroke-width="1.000000" stroke-linejoin="round" stroke-linecap="round"/>
		<path id="Vector" d="M20 17L17 21L23 21L20 17Z" fill="#FFFFFF" fill-opacity="1.000000" fill-rule="nonzero"/>
		<path id="Vector" d="M17 21L23 21L20 17L17 21Z" stroke="#FFFFFF" stroke-opacity="1.000000" stroke-width="1.000000" stroke-linejoin="round"/>
	</g>
</svg>
